<?xml version="1.0" encoding="UTF-8" standalone="no"?>
<!-- Created with Inkscape (http://www.inkscape.org/) -->

<svg
   width="210.00009mm"
   height="148mm"
   viewBox="0 0 793.70117 559.37012"
   version="1.1"
   id="svg5"
   xmlns="http://www.w3.org/2000/svg"
   xmlns:svg="http://www.w3.org/2000/svg">
  <defs
     id="defs2" />
  <g
     id="layer1">
    <g
       id="g417"
       transform="translate(-63.699881,-363.46233)">
      <g
         id="g242">
	<path
   fill="#ffffff"
   stroke="#000000"
   stroke-width="2"
   stroke-miterlimit="10"
   d="m 112.566,315.802 h -26.9 c -10.339,0 -18.72,-8.381 -18.72,-18.72 v -26.9 c 0,-10.339 8.381,-18.72 18.72,-18.72 h 26.9 c 10.339,0 18.72,8.381 18.72,18.72 v 26.9 c 0,10.339 -8.381,18.72 -18.72,18.72 z"
   id="path232" />

	<path
   d="m 204.481,315.802 h -26.9 c -10.339,0 -18.72,-8.381 -18.72,-18.72 v -26.9 c 0,-10.339 8.381,-18.72 18.72,-18.72 h 26.9 c 10.339,0 18.72,8.381 18.72,18.72 v 26.9 c 0,10.339 -8.382,18.72 -18.72,18.72 z"
   id="path234" />

	<path
   fill="none"
   stroke="#7f7f7f"
   stroke-width="2"
   stroke-miterlimit="10"
   d="m 296.396,315.802 h -26.9 c -10.339,0 -18.72,-8.381 -18.72,-18.72 v -26.9 c 0,-10.339 8.381,-18.72 18.72,-18.72 h 26.9 c 10.339,0 18.72,8.381 18.72,18.72 v 26.9 c 0,10.339 -8.382,18.72 -18.72,18.72 z"
   id="path236" />

	<path
   fill="#7f7f7f"
   d="m 388.311,315.802 h -26.9 c -10.339,0 -18.72,-8.381 -18.72,-18.72 v -26.9 c 0,-10.339 8.381,-18.72 18.72,-18.72 h 26.9 c 10.339,0 18.72,8.381 18.72,18.72 v 26.9 c 0,10.339 -8.382,18.72 -18.72,18.72 z"
   id="path238" />

	<path
   fill="#0068ff"
   d="m 480.225,315.802 h -26.9 c -10.339,0 -18.72,-8.381 -18.72,-18.72 v -26.9 c 0,-10.339 8.381,-18.72 18.72,-18.72 h 26.9 c 10.339,0 18.72,8.381 18.72,18.72 v 26.9 c 0,10.339 -8.381,18.72 -18.72,18.72 z"
   id="path240" />

</g>
      <g
         id="g350">
	<g
   id="g266">
		<path
   fill="#0068ff"
   d="m 83.95,322.339 c 0.12,0.12 0.18,0.271 0.18,0.45 0,0.179 -0.06,0.328 -0.18,0.445 -0.12,0.116 -0.276,0.175 -0.47,0.175 -0.188,0 -0.341,-0.059 -0.46,-0.175 -0.12,-0.117 -0.181,-0.266 -0.181,-0.445 0,-0.179 0.061,-0.33 0.181,-0.45 0.119,-0.12 0.272,-0.18 0.46,-0.18 0.194,0 0.35,0.06 0.47,0.18 z m -0.919,7.62 v -5.27 h 0.92 v 5.27 z"
   id="path244" />

		<path
   fill="#0068ff"
   d="m 89.455,324.999 c 0.271,0.287 0.405,0.68 0.405,1.18 v 3.78 h -0.92 v -3.65 c 0,-0.373 -0.07,-0.636 -0.21,-0.79 -0.14,-0.153 -0.347,-0.229 -0.62,-0.229 -0.28,0 -0.526,0.08 -0.74,0.24 -0.213,0.16 -0.413,0.39 -0.6,0.689 v 3.74 h -0.92 v -5.27 h 0.79 l 0.08,0.779 c 0.187,-0.279 0.418,-0.5 0.694,-0.66 0.277,-0.159 0.582,-0.239 0.915,-0.239 0.482,10e-4 0.857,0.144 1.126,0.43 z"
   id="path246" />

		<path
   fill="#0068ff"
   d="m 93.19,330.079 c -0.446,0 -0.795,-0.128 -1.045,-0.385 -0.25,-0.257 -0.375,-0.629 -0.375,-1.115 v -3.18 h -0.92 v -0.71 h 0.92 v -1.19 l 0.92,-0.11 v 1.301 h 1.25 l -0.1,0.71 h -1.15 v 3.14 c 0,0.273 0.049,0.472 0.146,0.595 0.097,0.124 0.258,0.186 0.484,0.186 0.221,0 0.454,-0.077 0.7,-0.23 l 0.351,0.63 c -0.347,0.238 -0.741,0.358 -1.181,0.358 z"
   id="path248" />

		<path
   fill="#0068ff"
   d="m 99.18,327.639 h -3.36 c 0.04,0.58 0.187,1.007 0.44,1.28 0.253,0.273 0.58,0.41 0.979,0.41 0.254,0 0.487,-0.037 0.7,-0.11 0.213,-0.073 0.437,-0.189 0.67,-0.35 l 0.4,0.55 c -0.561,0.44 -1.174,0.66 -1.84,0.66 -0.733,0 -1.306,-0.24 -1.716,-0.72 -0.409,-0.48 -0.614,-1.141 -0.614,-1.98 0,-0.547 0.088,-1.031 0.265,-1.455 0.177,-0.423 0.43,-0.755 0.76,-0.995 0.33,-0.239 0.719,-0.359 1.165,-0.359 0.7,0 1.236,0.229 1.61,0.689 0.373,0.46 0.56,1.097 0.56,1.91 0,0.153 -0.006,0.31 -0.019,0.47 z M 98.289,326.9 c 0,-0.521 -0.103,-0.917 -0.31,-1.19 -0.207,-0.273 -0.517,-0.41 -0.93,-0.41 -0.754,0 -1.164,0.554 -1.23,1.66 h 2.47 z"
   id="path250" />

		<path
   fill="#0068ff"
   d="m 103.53,324.629 -0.17,0.9 c -0.16,-0.04 -0.313,-0.061 -0.46,-0.061 -0.326,0 -0.59,0.12 -0.79,0.36 -0.2,0.24 -0.356,0.613 -0.47,1.12 v 3.01 h -0.92 v -5.27 h 0.79 l 0.09,1.069 c 0.14,-0.394 0.33,-0.689 0.57,-0.89 0.239,-0.2 0.52,-0.3 0.84,-0.3 0.187,0.003 0.359,0.022 0.52,0.062 z"
   id="path252" />

		<path
   fill="#0068ff"
   d="m 105.5,322.339 c 0.12,0.12 0.18,0.271 0.18,0.45 0,0.179 -0.06,0.328 -0.18,0.445 -0.12,0.116 -0.276,0.175 -0.47,0.175 -0.188,0 -0.341,-0.059 -0.46,-0.175 -0.12,-0.117 -0.181,-0.266 -0.181,-0.445 0,-0.179 0.061,-0.33 0.181,-0.45 0.119,-0.12 0.272,-0.18 0.46,-0.18 0.194,0 0.35,0.06 0.47,0.18 z m -0.92,7.62 v -5.27 h 0.92 v 5.27 z"
   id="path254" />

		<path
   fill="#0068ff"
   d="m 111.106,325.309 c 0.41,0.494 0.614,1.164 0.614,2.011 0,0.546 -0.093,1.028 -0.279,1.444 -0.187,0.417 -0.457,0.74 -0.811,0.971 -0.354,0.229 -0.773,0.345 -1.26,0.345 -0.74,0 -1.316,-0.247 -1.729,-0.74 -0.414,-0.493 -0.62,-1.163 -0.62,-2.01 0,-0.547 0.093,-1.028 0.279,-1.445 0.187,-0.416 0.457,-0.74 0.811,-0.97 0.354,-0.23 0.776,-0.345 1.27,-0.345 0.739,0 1.315,0.246 1.725,0.739 z m -3.096,2.02 c 0,1.34 0.454,2.01 1.36,2.01 0.906,0 1.36,-0.673 1.36,-2.02 0,-1.341 -0.45,-2.011 -1.351,-2.011 -0.912,0.001 -1.369,0.675 -1.369,2.021 z"
   id="path256" />

		<path
   fill="#0068ff"
   d="m 116.05,324.629 -0.17,0.9 c -0.16,-0.04 -0.313,-0.061 -0.46,-0.061 -0.326,0 -0.59,0.12 -0.79,0.36 -0.2,0.24 -0.356,0.613 -0.47,1.12 v 3.01 h -0.92 v -5.27 h 0.79 l 0.09,1.069 c 0.14,-0.394 0.33,-0.689 0.57,-0.89 0.239,-0.2 0.52,-0.3 0.84,-0.3 0.187,0.003 0.36,0.022 0.52,0.062 z"
   id="path258" />

		<path
   fill="#0068ff"
   d="m 95.741,336.704 c 0.26,0.09 0.51,0.235 0.75,0.435 l -0.45,0.601 c -0.181,-0.141 -0.357,-0.243 -0.53,-0.311 -0.174,-0.066 -0.37,-0.1 -0.59,-0.1 -0.427,0 -0.759,0.17 -0.995,0.51 -0.236,0.34 -0.355,0.844 -0.355,1.51 0,0.667 0.117,1.159 0.351,1.476 0.234,0.317 0.566,0.475 1,0.475 0.213,0 0.405,-0.033 0.575,-0.1 0.17,-0.067 0.354,-0.177 0.555,-0.33 l 0.44,0.63 c -0.48,0.387 -1.018,0.58 -1.61,0.58 -0.714,0 -1.275,-0.24 -1.686,-0.72 -0.409,-0.48 -0.614,-1.144 -0.614,-1.99 0,-0.561 0.093,-1.05 0.279,-1.47 0.187,-0.421 0.452,-0.747 0.795,-0.98 0.344,-0.233 0.752,-0.35 1.226,-0.35 0.313,0 0.599,0.044 0.859,0.134 z"
   id="path260" />

		<path
   fill="#0068ff"
   d="m 100.871,341.959 -0.07,-0.82 c -0.2,0.327 -0.43,0.565 -0.689,0.715 -0.261,0.15 -0.577,0.226 -0.95,0.226 -0.46,0 -0.82,-0.14 -1.08,-0.42 -0.26,-0.28 -0.39,-0.677 -0.39,-1.19 v -3.779 h 0.92 v 3.68 c 0,0.359 0.063,0.615 0.189,0.765 0.127,0.15 0.334,0.226 0.62,0.226 0.514,0 0.953,-0.304 1.32,-0.91 v -3.76 h 0.92 v 5.27 h -0.79 z"
   id="path262" />

		<path
   fill="#0068ff"
   d="m 105.04,342.079 c -0.446,0 -0.795,-0.128 -1.045,-0.385 -0.25,-0.257 -0.375,-0.629 -0.375,-1.115 v -3.18 h -0.92 v -0.71 h 0.92 v -1.19 l 0.92,-0.11 v 1.301 h 1.25 l -0.1,0.71 h -1.15 v 3.14 c 0,0.273 0.049,0.472 0.146,0.595 0.097,0.124 0.258,0.186 0.484,0.186 0.221,0 0.454,-0.077 0.7,-0.23 l 0.351,0.63 c -0.347,0.238 -0.74,0.358 -1.181,0.358 z"
   id="path264" />

	</g>

	<g
   id="g290">
		<path
   fill="#0068ff"
   d="m 178.121,327.639 h -3.36 c 0.04,0.58 0.187,1.007 0.44,1.28 0.253,0.273 0.58,0.41 0.979,0.41 0.254,0 0.487,-0.037 0.7,-0.11 0.213,-0.073 0.437,-0.189 0.67,-0.35 l 0.4,0.55 c -0.561,0.44 -1.174,0.66 -1.84,0.66 -0.733,0 -1.306,-0.24 -1.716,-0.72 -0.409,-0.48 -0.614,-1.141 -0.614,-1.98 0,-0.547 0.088,-1.031 0.265,-1.455 0.177,-0.423 0.43,-0.755 0.76,-0.995 0.33,-0.239 0.719,-0.359 1.165,-0.359 0.7,0 1.236,0.229 1.61,0.689 0.373,0.46 0.56,1.097 0.56,1.91 0.001,0.153 -0.006,0.31 -0.019,0.47 z m -0.89,-0.739 c 0,-0.521 -0.103,-0.917 -0.31,-1.19 -0.207,-0.273 -0.517,-0.41 -0.93,-0.41 -0.754,0 -1.164,0.554 -1.23,1.66 h 2.47 z"
   id="path268" />

		<path
   fill="#0068ff"
   d="m 182.302,329.959 -1.29,-2.23 -1.311,2.23 h -1.04 l 1.84,-2.78 -1.63,-2.489 h 1.08 l 1.101,1.93 1.109,-1.93 h 1.04 l -1.62,2.449 1.83,2.82 z"
   id="path270" />

		<path
   fill="#0068ff"
   d="m 185.891,330.079 c -0.446,0 -0.795,-0.128 -1.045,-0.385 -0.25,-0.257 -0.375,-0.629 -0.375,-1.115 v -3.18 h -0.92 v -0.71 h 0.92 v -1.19 l 0.92,-0.11 v 1.301 h 1.25 l -0.1,0.71 h -1.15 v 3.14 c 0,0.273 0.049,0.472 0.146,0.595 0.097,0.124 0.258,0.186 0.484,0.186 0.221,0 0.454,-0.077 0.7,-0.23 l 0.351,0.63 c -0.347,0.238 -0.741,0.358 -1.181,0.358 z"
   id="path272" />

		<path
   fill="#0068ff"
   d="m 191.881,327.639 h -3.36 c 0.04,0.58 0.187,1.007 0.44,1.28 0.253,0.273 0.58,0.41 0.979,0.41 0.254,0 0.487,-0.037 0.7,-0.11 0.213,-0.073 0.437,-0.189 0.67,-0.35 l 0.4,0.55 c -0.561,0.44 -1.174,0.66 -1.84,0.66 -0.733,0 -1.306,-0.24 -1.716,-0.72 -0.409,-0.48 -0.614,-1.141 -0.614,-1.98 0,-0.547 0.088,-1.031 0.265,-1.455 0.177,-0.423 0.43,-0.755 0.76,-0.995 0.33,-0.239 0.719,-0.359 1.165,-0.359 0.7,0 1.236,0.229 1.61,0.689 0.373,0.46 0.56,1.097 0.56,1.91 0.001,0.153 -0.006,0.31 -0.019,0.47 z M 190.99,326.9 c 0,-0.521 -0.103,-0.917 -0.31,-1.19 -0.207,-0.273 -0.517,-0.41 -0.93,-0.41 -0.754,0 -1.164,0.554 -1.23,1.66 h 2.47 z"
   id="path274" />

		<path
   fill="#0068ff"
   d="m 196.231,324.629 -0.17,0.9 c -0.16,-0.04 -0.313,-0.061 -0.46,-0.061 -0.326,0 -0.59,0.12 -0.79,0.36 -0.2,0.24 -0.356,0.613 -0.47,1.12 v 3.01 h -0.92 v -5.27 h 0.79 l 0.09,1.069 c 0.14,-0.394 0.33,-0.689 0.57,-0.89 0.239,-0.2 0.52,-0.3 0.84,-0.3 0.187,0.003 0.36,0.022 0.52,0.062 z"
   id="path276" />

		<path
   fill="#0068ff"
   d="m 198.2,322.339 c 0.12,0.12 0.18,0.271 0.18,0.45 0,0.179 -0.06,0.328 -0.18,0.445 -0.12,0.116 -0.276,0.175 -0.47,0.175 -0.188,0 -0.341,-0.059 -0.46,-0.175 -0.12,-0.117 -0.181,-0.266 -0.181,-0.445 0,-0.179 0.061,-0.33 0.181,-0.45 0.119,-0.12 0.272,-0.18 0.46,-0.18 0.194,0 0.35,0.06 0.47,0.18 z m -0.919,7.62 v -5.27 h 0.92 v 5.27 z"
   id="path278" />

		<path
   fill="#0068ff"
   d="m 203.806,325.309 c 0.41,0.494 0.614,1.164 0.614,2.011 0,0.546 -0.093,1.028 -0.279,1.444 -0.187,0.417 -0.457,0.74 -0.811,0.971 -0.354,0.229 -0.773,0.345 -1.26,0.345 -0.74,0 -1.316,-0.247 -1.729,-0.74 -0.414,-0.493 -0.62,-1.163 -0.62,-2.01 0,-0.547 0.093,-1.028 0.279,-1.445 0.187,-0.416 0.457,-0.74 0.811,-0.97 0.354,-0.23 0.776,-0.345 1.27,-0.345 0.74,0 1.315,0.246 1.725,0.739 z m -3.096,2.02 c 0,1.34 0.454,2.01 1.36,2.01 0.906,0 1.36,-0.673 1.36,-2.02 0,-1.341 -0.45,-2.011 -1.351,-2.011 -0.912,0.001 -1.369,0.675 -1.369,2.021 z"
   id="path280" />

		<path
   fill="#0068ff"
   d="m 208.75,324.629 -0.17,0.9 c -0.16,-0.04 -0.313,-0.061 -0.46,-0.061 -0.326,0 -0.59,0.12 -0.79,0.36 -0.2,0.24 -0.356,0.613 -0.47,1.12 v 3.01 h -0.92 v -5.27 h 0.79 l 0.09,1.069 c 0.14,-0.394 0.33,-0.689 0.57,-0.89 0.239,-0.2 0.52,-0.3 0.84,-0.3 0.187,0.003 0.36,0.022 0.52,0.062 z"
   id="path282" />

		<path
   fill="#0068ff"
   d="m 187.656,336.704 c 0.26,0.09 0.51,0.235 0.75,0.435 l -0.45,0.601 c -0.181,-0.141 -0.357,-0.243 -0.53,-0.311 -0.174,-0.066 -0.37,-0.1 -0.59,-0.1 -0.427,0 -0.759,0.17 -0.995,0.51 -0.236,0.34 -0.355,0.844 -0.355,1.51 0,0.667 0.117,1.159 0.351,1.476 0.234,0.317 0.566,0.475 1,0.475 0.213,0 0.405,-0.033 0.575,-0.1 0.17,-0.067 0.354,-0.177 0.555,-0.33 l 0.44,0.63 c -0.48,0.387 -1.018,0.58 -1.61,0.58 -0.714,0 -1.275,-0.24 -1.686,-0.72 -0.409,-0.48 -0.614,-1.144 -0.614,-1.99 0,-0.561 0.093,-1.05 0.279,-1.47 0.187,-0.421 0.452,-0.747 0.795,-0.98 0.344,-0.233 0.752,-0.35 1.226,-0.35 0.313,0 0.599,0.044 0.859,0.134 z"
   id="path284" />

		<path
   fill="#0068ff"
   d="m 192.786,341.959 -0.07,-0.82 c -0.2,0.327 -0.43,0.565 -0.689,0.715 -0.261,0.15 -0.577,0.226 -0.95,0.226 -0.46,0 -0.82,-0.14 -1.08,-0.42 -0.26,-0.28 -0.39,-0.677 -0.39,-1.19 v -3.779 h 0.92 v 3.68 c 0,0.359 0.063,0.615 0.189,0.765 0.127,0.15 0.334,0.226 0.62,0.226 0.514,0 0.953,-0.304 1.32,-0.91 v -3.76 h 0.92 v 5.27 h -0.79 z"
   id="path286" />

		<path
   fill="#0068ff"
   d="m 196.955,342.079 c -0.446,0 -0.795,-0.128 -1.045,-0.385 -0.25,-0.257 -0.375,-0.629 -0.375,-1.115 v -3.18 h -0.92 v -0.71 h 0.92 v -1.19 l 0.92,-0.11 v 1.301 h 1.25 l -0.1,0.71 h -1.15 v 3.14 c 0,0.273 0.049,0.472 0.146,0.595 0.097,0.124 0.258,0.186 0.484,0.186 0.221,0 0.454,-0.077 0.7,-0.23 l 0.351,0.63 c -0.347,0.238 -0.74,0.358 -1.181,0.358 z"
   id="path288" />

	</g>

	<g
   id="g310">
		<path
   fill="#0068ff"
   d="m 271.871,325.309 c 0.41,0.494 0.614,1.164 0.614,2.011 0,0.546 -0.093,1.028 -0.279,1.444 -0.187,0.417 -0.457,0.74 -0.811,0.971 -0.354,0.229 -0.773,0.345 -1.26,0.345 -0.74,0 -1.316,-0.247 -1.729,-0.74 -0.414,-0.493 -0.62,-1.163 -0.62,-2.01 0,-0.547 0.093,-1.028 0.279,-1.445 0.187,-0.416 0.457,-0.74 0.811,-0.97 0.354,-0.23 0.776,-0.345 1.27,-0.345 0.74,0 1.315,0.246 1.725,0.739 z m -3.095,2.02 c 0,1.34 0.454,2.01 1.36,2.01 0.906,0 1.36,-0.673 1.36,-2.02 0,-1.341 -0.45,-2.011 -1.351,-2.011 -0.912,0.001 -1.369,0.675 -1.369,2.021 z"
   id="path292" />

		<path
   fill="#0068ff"
   d="m 277.611,324.999 c 0.271,0.287 0.405,0.68 0.405,1.18 v 3.78 h -0.92 v -3.65 c 0,-0.373 -0.07,-0.636 -0.21,-0.79 -0.14,-0.153 -0.347,-0.229 -0.62,-0.229 -0.28,0 -0.526,0.08 -0.74,0.24 -0.213,0.16 -0.413,0.39 -0.6,0.689 v 3.74 h -0.92 v -5.27 h 0.79 l 0.08,0.779 c 0.187,-0.279 0.418,-0.5 0.694,-0.66 0.277,-0.159 0.582,-0.239 0.915,-0.239 0.481,10e-4 0.856,0.144 1.126,0.43 z"
   id="path294" />

		<path
   fill="#0068ff"
   d="m 283.46,329.219 c 0.051,0.067 0.136,0.101 0.256,0.101 0.126,0 0.239,-0.021 0.34,-0.061 l 0.24,0.641 c -0.247,0.119 -0.507,0.18 -0.78,0.18 -0.34,0 -0.601,-0.099 -0.78,-0.295 -0.179,-0.196 -0.27,-0.485 -0.27,-0.865 v -6.35 l 0.92,-0.11 v 6.44 c 0,0.146 0.024,0.253 0.074,0.319 z"
   id="path296" />

		<path
   fill="#0068ff"
   d="m 286.366,322.339 c 0.12,0.12 0.18,0.271 0.18,0.45 0,0.179 -0.06,0.328 -0.18,0.445 -0.12,0.116 -0.276,0.175 -0.47,0.175 -0.188,0 -0.341,-0.059 -0.46,-0.175 -0.12,-0.117 -0.181,-0.266 -0.181,-0.445 0,-0.179 0.061,-0.33 0.181,-0.45 0.119,-0.12 0.272,-0.18 0.46,-0.18 0.194,0 0.35,0.06 0.47,0.18 z m -0.919,7.62 v -5.27 h 0.92 v 5.27 z"
   id="path298" />

		<path
   fill="#0068ff"
   d="m 291.87,324.999 c 0.271,0.287 0.405,0.68 0.405,1.18 v 3.78 h -0.92 v -3.65 c 0,-0.373 -0.07,-0.636 -0.21,-0.79 -0.14,-0.153 -0.347,-0.229 -0.62,-0.229 -0.28,0 -0.526,0.08 -0.74,0.24 -0.213,0.16 -0.413,0.39 -0.6,0.689 v 3.74 h -0.92 v -5.27 h 0.79 l 0.08,0.779 c 0.187,-0.279 0.418,-0.5 0.694,-0.66 0.277,-0.159 0.582,-0.239 0.915,-0.239 0.482,10e-4 0.857,0.144 1.126,0.43 z"
   id="path300" />

		<path
   fill="#0068ff"
   d="m 298.086,327.639 h -3.36 c 0.04,0.58 0.187,1.007 0.44,1.28 0.253,0.273 0.58,0.41 0.979,0.41 0.254,0 0.487,-0.037 0.7,-0.11 0.213,-0.073 0.437,-0.189 0.67,-0.35 l 0.4,0.55 c -0.561,0.44 -1.174,0.66 -1.84,0.66 -0.733,0 -1.306,-0.24 -1.716,-0.72 -0.409,-0.48 -0.614,-1.141 -0.614,-1.98 0,-0.547 0.088,-1.031 0.265,-1.455 0.177,-0.423 0.43,-0.755 0.76,-0.995 0.33,-0.239 0.719,-0.359 1.165,-0.359 0.7,0 1.236,0.229 1.61,0.689 0.373,0.46 0.56,1.097 0.56,1.91 10e-4,0.153 -0.006,0.31 -0.019,0.47 z m -0.89,-0.739 c 0,-0.521 -0.103,-0.917 -0.31,-1.19 -0.207,-0.273 -0.517,-0.41 -0.93,-0.41 -0.754,0 -1.164,0.554 -1.23,1.66 h 2.47 z"
   id="path302" />

		<path
   fill="#0068ff"
   d="m 279.572,336.704 c 0.26,0.09 0.51,0.235 0.75,0.435 l -0.45,0.601 c -0.181,-0.141 -0.357,-0.243 -0.53,-0.311 -0.174,-0.066 -0.37,-0.1 -0.59,-0.1 -0.427,0 -0.759,0.17 -0.995,0.51 -0.236,0.34 -0.355,0.844 -0.355,1.51 0,0.667 0.117,1.159 0.351,1.476 0.234,0.317 0.566,0.475 1,0.475 0.213,0 0.405,-0.033 0.575,-0.1 0.17,-0.067 0.354,-0.177 0.555,-0.33 l 0.44,0.63 c -0.48,0.387 -1.018,0.58 -1.61,0.58 -0.714,0 -1.275,-0.24 -1.686,-0.72 -0.409,-0.48 -0.614,-1.144 -0.614,-1.99 0,-0.561 0.093,-1.05 0.279,-1.47 0.187,-0.421 0.452,-0.747 0.795,-0.98 0.344,-0.233 0.752,-0.35 1.226,-0.35 0.312,0 0.598,0.044 0.859,0.134 z"
   id="path304" />

		<path
   fill="#0068ff"
   d="m 284.701,341.959 -0.07,-0.82 c -0.2,0.327 -0.43,0.565 -0.689,0.715 -0.261,0.15 -0.577,0.226 -0.95,0.226 -0.46,0 -0.82,-0.14 -1.08,-0.42 -0.26,-0.28 -0.39,-0.677 -0.39,-1.19 v -3.779 h 0.92 v 3.68 c 0,0.359 0.063,0.615 0.189,0.765 0.127,0.15 0.334,0.226 0.62,0.226 0.514,0 0.953,-0.304 1.32,-0.91 v -3.76 h 0.92 v 5.27 h -0.79 z"
   id="path306" />

		<path
   fill="#0068ff"
   d="m 288.87,342.079 c -0.446,0 -0.795,-0.128 -1.045,-0.385 -0.25,-0.257 -0.375,-0.629 -0.375,-1.115 v -3.18 h -0.92 v -0.71 h 0.92 v -1.19 l 0.92,-0.11 v 1.301 h 1.25 l -0.1,0.71 h -1.15 v 3.14 c 0,0.273 0.049,0.472 0.146,0.595 0.097,0.124 0.258,0.186 0.484,0.186 0.221,0 0.454,-0.077 0.7,-0.23 l 0.351,0.63 c -0.347,0.238 -0.74,0.358 -1.181,0.358 z"
   id="path308" />

	</g>

	<g
   id="g336">
		<path
   fill="#0068ff"
   d="m 357.424,325.289 c 0.313,0.479 0.471,1.156 0.471,2.03 0,0.826 -0.181,1.493 -0.54,2 -0.36,0.507 -0.87,0.76 -1.53,0.76 -0.587,0 -1.047,-0.2 -1.38,-0.601 v 2.5 l -0.92,0.11 v -7.399 h 0.79 l 0.069,0.71 c 0.193,-0.267 0.427,-0.472 0.7,-0.615 0.273,-0.143 0.561,-0.215 0.86,-0.215 0.673,10e-4 1.167,0.24 1.48,0.72 z m -0.519,2.031 c 0,-1.347 -0.396,-2.021 -1.19,-2.021 -0.26,0 -0.496,0.077 -0.71,0.23 -0.213,0.153 -0.399,0.35 -0.56,0.59 v 2.57 c 0.133,0.206 0.3,0.364 0.5,0.475 0.2,0.111 0.42,0.165 0.66,0.165 0.866,0 1.3,-0.67 1.3,-2.009 z"
   id="path312" />

		<path
   fill="#0068ff"
   d="m 363.169,325.309 c 0.41,0.494 0.614,1.164 0.614,2.011 0,0.546 -0.093,1.028 -0.279,1.444 -0.187,0.417 -0.457,0.74 -0.811,0.971 -0.354,0.229 -0.773,0.345 -1.26,0.345 -0.74,0 -1.316,-0.247 -1.729,-0.74 -0.414,-0.493 -0.62,-1.163 -0.62,-2.01 0,-0.547 0.093,-1.028 0.279,-1.445 0.187,-0.416 0.457,-0.74 0.811,-0.97 0.354,-0.23 0.776,-0.345 1.27,-0.345 0.74,0 1.315,0.246 1.725,0.739 z m -3.096,2.02 c 0,1.34 0.454,2.01 1.36,2.01 0.906,0 1.36,-0.673 1.36,-2.02 0,-1.341 -0.45,-2.011 -1.351,-2.011 -0.912,0.001 -1.369,0.675 -1.369,2.021 z"
   id="path314" />

		<path
   fill="#0068ff"
   d="m 368.085,324.704 c 0.26,0.09 0.51,0.235 0.75,0.435 l -0.45,0.601 c -0.181,-0.141 -0.357,-0.243 -0.53,-0.311 -0.174,-0.066 -0.37,-0.1 -0.59,-0.1 -0.427,0 -0.759,0.17 -0.995,0.51 -0.236,0.34 -0.355,0.844 -0.355,1.51 0,0.667 0.117,1.159 0.351,1.476 0.234,0.317 0.566,0.475 1,0.475 0.213,0 0.405,-0.033 0.575,-0.1 0.17,-0.067 0.354,-0.177 0.555,-0.33 l 0.44,0.63 c -0.48,0.387 -1.018,0.58 -1.61,0.58 -0.714,0 -1.275,-0.24 -1.686,-0.72 -0.409,-0.48 -0.614,-1.144 -0.614,-1.99 0,-0.561 0.093,-1.05 0.279,-1.47 0.187,-0.421 0.452,-0.747 0.795,-0.98 0.344,-0.233 0.752,-0.35 1.226,-0.35 0.312,0 0.598,0.044 0.859,0.134 z"
   id="path316" />

		<path
   fill="#0068ff"
   d="m 370.084,329.959 v -7.39 l 0.92,-0.11 v 7.5 z m 4.17,0 h -1.101 l -2.09,-2.88 1.94,-2.39 h 1.03 l -1.94,2.329 z"
   id="path318" />

		<path
   fill="#0068ff"
   d="m 379.065,327.639 h -3.36 c 0.04,0.58 0.187,1.007 0.44,1.28 0.253,0.273 0.58,0.41 0.979,0.41 0.254,0 0.487,-0.037 0.7,-0.11 0.213,-0.073 0.437,-0.189 0.67,-0.35 l 0.4,0.55 c -0.561,0.44 -1.174,0.66 -1.84,0.66 -0.733,0 -1.306,-0.24 -1.716,-0.72 -0.409,-0.48 -0.614,-1.141 -0.614,-1.98 0,-0.547 0.088,-1.031 0.265,-1.455 0.177,-0.423 0.43,-0.755 0.76,-0.995 0.33,-0.239 0.719,-0.359 1.165,-0.359 0.7,0 1.236,0.229 1.61,0.689 0.373,0.46 0.56,1.097 0.56,1.91 0,0.153 -0.007,0.31 -0.019,0.47 z m -0.891,-0.739 c 0,-0.521 -0.103,-0.917 -0.31,-1.19 -0.207,-0.273 -0.517,-0.41 -0.93,-0.41 -0.754,0 -1.164,0.554 -1.23,1.66 h 2.47 z"
   id="path320" />

		<path
   fill="#0068ff"
   d="m 382.084,330.079 c -0.446,0 -0.795,-0.128 -1.045,-0.385 -0.25,-0.257 -0.375,-0.629 -0.375,-1.115 v -3.18 h -0.92 v -0.71 h 0.92 v -1.19 l 0.92,-0.11 v 1.301 h 1.25 l -0.1,0.71 h -1.15 v 3.14 c 0,0.273 0.049,0.472 0.146,0.595 0.097,0.124 0.258,0.186 0.484,0.186 0.221,0 0.454,-0.077 0.7,-0.23 l 0.351,0.63 c -0.347,0.238 -0.74,0.358 -1.181,0.358 z"
   id="path322" />

		<path
   fill="#0068ff"
   d="m 385.134,322.339 c 0.12,0.12 0.18,0.271 0.18,0.45 0,0.179 -0.06,0.328 -0.18,0.445 -0.12,0.116 -0.276,0.175 -0.47,0.175 -0.188,0 -0.341,-0.059 -0.46,-0.175 -0.12,-0.117 -0.181,-0.266 -0.181,-0.445 0,-0.179 0.061,-0.33 0.181,-0.45 0.119,-0.12 0.272,-0.18 0.46,-0.18 0.194,0 0.35,0.06 0.47,0.18 z m -0.92,7.62 v -5.27 h 0.92 v 5.27 z"
   id="path324" />

		<path
   fill="#0068ff"
   d="m 390.639,324.999 c 0.271,0.287 0.405,0.68 0.405,1.18 v 3.78 h -0.92 v -3.65 c 0,-0.373 -0.07,-0.636 -0.21,-0.79 -0.14,-0.153 -0.347,-0.229 -0.62,-0.229 -0.28,0 -0.526,0.08 -0.74,0.24 -0.213,0.16 -0.413,0.39 -0.6,0.689 v 3.74 h -0.92 v -5.27 h 0.79 l 0.08,0.779 c 0.187,-0.279 0.418,-0.5 0.694,-0.66 0.277,-0.159 0.582,-0.239 0.915,-0.239 0.481,10e-4 0.856,0.144 1.126,0.43 z"
   id="path326" />

		<path
   fill="#0068ff"
   d="m 396.485,325.059 c -0.24,0.021 -0.533,0.03 -0.88,0.03 0.62,0.28 0.93,0.724 0.93,1.33 0,0.526 -0.18,0.957 -0.54,1.29 -0.359,0.333 -0.85,0.5 -1.47,0.5 -0.24,0 -0.464,-0.033 -0.67,-0.1 -0.08,0.053 -0.144,0.125 -0.19,0.215 -0.046,0.09 -0.069,0.182 -0.069,0.274 0,0.287 0.229,0.431 0.689,0.431 h 0.84 c 0.354,0 0.667,0.063 0.94,0.189 0.273,0.127 0.485,0.3 0.635,0.521 0.15,0.22 0.226,0.47 0.226,0.75 0,0.513 -0.211,0.908 -0.631,1.185 -0.42,0.277 -1.033,0.415 -1.84,0.415 -0.566,0 -1.015,-0.059 -1.345,-0.175 -0.33,-0.117 -0.565,-0.292 -0.705,-0.525 -0.14,-0.233 -0.21,-0.533 -0.21,-0.899 h 0.83 c 0,0.213 0.04,0.381 0.12,0.505 0.08,0.123 0.223,0.217 0.43,0.28 0.207,0.063 0.5,0.095 0.88,0.095 0.554,0 0.948,-0.068 1.186,-0.205 0.236,-0.137 0.354,-0.342 0.354,-0.615 0,-0.246 -0.093,-0.434 -0.28,-0.56 -0.187,-0.127 -0.446,-0.19 -0.779,-0.19 h -0.83 c -0.447,0 -0.785,-0.095 -1.016,-0.285 -0.229,-0.189 -0.345,-0.428 -0.345,-0.715 0,-0.173 0.05,-0.34 0.15,-0.5 0.1,-0.16 0.243,-0.303 0.43,-0.43 -0.307,-0.16 -0.531,-0.358 -0.675,-0.595 -0.144,-0.237 -0.215,-0.525 -0.215,-0.865 0,-0.354 0.088,-0.67 0.265,-0.95 0.177,-0.28 0.42,-0.498 0.73,-0.655 0.31,-0.156 0.654,-0.234 1.034,-0.234 0.414,0.007 0.761,-0.009 1.04,-0.045 0.28,-0.037 0.512,-0.087 0.695,-0.15 0.183,-0.063 0.408,-0.155 0.675,-0.275 l 0.271,0.83 c -0.2,0.065 -0.42,0.108 -0.66,0.128 z m -2.826,0.495 c -0.189,0.217 -0.285,0.502 -0.285,0.855 0,0.359 0.097,0.648 0.29,0.865 0.193,0.216 0.467,0.324 0.82,0.324 0.36,0 0.635,-0.104 0.825,-0.314 0.189,-0.21 0.285,-0.505 0.285,-0.885 0,-0.78 -0.377,-1.171 -1.131,-1.171 -0.346,10e-4 -0.613,0.11 -0.804,0.326 z"
   id="path328" />

		<path
   fill="#0068ff"
   d="m 371.486,336.704 c 0.26,0.09 0.51,0.235 0.75,0.435 l -0.45,0.601 c -0.181,-0.141 -0.357,-0.243 -0.53,-0.311 -0.174,-0.066 -0.37,-0.1 -0.59,-0.1 -0.427,0 -0.759,0.17 -0.995,0.51 -0.236,0.34 -0.355,0.844 -0.355,1.51 0,0.667 0.117,1.159 0.351,1.476 0.234,0.317 0.566,0.475 1,0.475 0.213,0 0.405,-0.033 0.575,-0.1 0.17,-0.067 0.354,-0.177 0.555,-0.33 l 0.44,0.63 c -0.48,0.387 -1.018,0.58 -1.61,0.58 -0.714,0 -1.275,-0.24 -1.686,-0.72 -0.409,-0.48 -0.614,-1.144 -0.614,-1.99 0,-0.561 0.093,-1.05 0.279,-1.47 0.187,-0.421 0.452,-0.747 0.795,-0.98 0.344,-0.233 0.752,-0.35 1.226,-0.35 0.312,0 0.598,0.044 0.859,0.134 z"
   id="path330" />

		<path
   fill="#0068ff"
   d="m 376.615,341.959 -0.07,-0.82 c -0.2,0.327 -0.43,0.565 -0.689,0.715 -0.261,0.15 -0.577,0.226 -0.95,0.226 -0.46,0 -0.82,-0.14 -1.08,-0.42 -0.26,-0.28 -0.39,-0.677 -0.39,-1.19 v -3.779 h 0.92 v 3.68 c 0,0.359 0.063,0.615 0.189,0.765 0.127,0.15 0.334,0.226 0.62,0.226 0.514,0 0.953,-0.304 1.32,-0.91 v -3.76 h 0.92 v 5.27 h -0.79 z"
   id="path332" />

		<path
   fill="#0068ff"
   d="m 380.784,342.079 c -0.446,0 -0.795,-0.128 -1.045,-0.385 -0.25,-0.257 -0.375,-0.629 -0.375,-1.115 v -3.18 h -0.92 v -0.71 h 0.92 v -1.19 l 0.92,-0.11 v 1.301 h 1.25 l -0.1,0.71 h -1.15 v 3.14 c 0,0.273 0.049,0.472 0.146,0.595 0.097,0.124 0.258,0.186 0.484,0.186 0.221,0 0.454,-0.077 0.7,-0.23 l 0.351,0.63 c -0.347,0.238 -0.74,0.358 -1.181,0.358 z"
   id="path334" />

	</g>

	<g
   id="g348">
		<path
   fill="#0068ff"
   d="m 458.706,325.059 c -0.24,0.021 -0.533,0.03 -0.88,0.03 0.62,0.28 0.93,0.724 0.93,1.33 0,0.526 -0.18,0.957 -0.54,1.29 -0.359,0.333 -0.85,0.5 -1.47,0.5 -0.24,0 -0.464,-0.033 -0.67,-0.1 -0.08,0.053 -0.144,0.125 -0.19,0.215 -0.046,0.09 -0.069,0.182 -0.069,0.274 0,0.287 0.229,0.431 0.689,0.431 h 0.84 c 0.354,0 0.667,0.063 0.94,0.189 0.273,0.127 0.485,0.3 0.635,0.521 0.15,0.22 0.226,0.47 0.226,0.75 0,0.513 -0.211,0.908 -0.631,1.185 -0.42,0.277 -1.033,0.415 -1.84,0.415 -0.566,0 -1.015,-0.059 -1.345,-0.175 -0.33,-0.117 -0.565,-0.292 -0.705,-0.525 -0.14,-0.233 -0.21,-0.533 -0.21,-0.899 h 0.83 c 0,0.213 0.04,0.381 0.12,0.505 0.08,0.123 0.223,0.217 0.43,0.28 0.207,0.063 0.5,0.095 0.88,0.095 0.554,0 0.948,-0.068 1.186,-0.205 0.236,-0.137 0.354,-0.342 0.354,-0.615 0,-0.246 -0.093,-0.434 -0.28,-0.56 -0.187,-0.127 -0.446,-0.19 -0.779,-0.19 h -0.83 c -0.447,0 -0.785,-0.095 -1.016,-0.285 -0.229,-0.189 -0.345,-0.428 -0.345,-0.715 0,-0.173 0.05,-0.34 0.15,-0.5 0.1,-0.16 0.243,-0.303 0.43,-0.43 -0.307,-0.16 -0.531,-0.358 -0.675,-0.595 -0.144,-0.237 -0.215,-0.525 -0.215,-0.865 0,-0.354 0.088,-0.67 0.265,-0.95 0.177,-0.28 0.42,-0.498 0.73,-0.655 0.31,-0.156 0.654,-0.234 1.034,-0.234 0.414,0.007 0.761,-0.009 1.04,-0.045 0.28,-0.037 0.512,-0.087 0.695,-0.15 0.183,-0.063 0.408,-0.155 0.675,-0.275 l 0.271,0.83 c -0.2,0.065 -0.419,0.108 -0.66,0.128 z m -2.825,0.495 c -0.189,0.217 -0.285,0.502 -0.285,0.855 0,0.359 0.097,0.648 0.29,0.865 0.193,0.216 0.467,0.324 0.82,0.324 0.36,0 0.635,-0.104 0.825,-0.314 0.189,-0.21 0.285,-0.505 0.285,-0.885 0,-0.78 -0.377,-1.171 -1.131,-1.171 -0.346,10e-4 -0.613,0.11 -0.804,0.326 z"
   id="path338" />

		<path
   fill="#0068ff"
   d="m 463.447,329.959 -0.07,-0.82 c -0.2,0.327 -0.43,0.565 -0.689,0.715 -0.261,0.15 -0.577,0.226 -0.95,0.226 -0.46,0 -0.82,-0.14 -1.08,-0.42 -0.26,-0.28 -0.39,-0.677 -0.39,-1.19 v -3.779 h 0.92 v 3.68 c 0,0.359 0.063,0.615 0.189,0.765 0.127,0.15 0.334,0.226 0.62,0.226 0.514,0 0.953,-0.304 1.32,-0.91 v -3.76 h 0.92 v 5.27 h -0.79 z"
   id="path340" />

		<path
   fill="#0068ff"
   d="m 467.056,322.339 c 0.12,0.12 0.18,0.271 0.18,0.45 0,0.179 -0.06,0.328 -0.18,0.445 -0.12,0.116 -0.276,0.175 -0.47,0.175 -0.188,0 -0.341,-0.059 -0.46,-0.175 -0.12,-0.117 -0.181,-0.266 -0.181,-0.445 0,-0.179 0.061,-0.33 0.181,-0.45 0.119,-0.12 0.272,-0.18 0.46,-0.18 0.194,0 0.35,0.06 0.47,0.18 z m -0.92,7.62 v -5.27 h 0.92 v 5.27 z"
   id="path342" />

		<path
   fill="#0068ff"
   d="m 473.036,329.959 h -0.811 l -0.09,-0.73 c -0.173,0.268 -0.39,0.476 -0.649,0.625 -0.261,0.15 -0.551,0.226 -0.87,0.226 -0.627,0 -1.115,-0.247 -1.466,-0.74 -0.35,-0.493 -0.524,-1.156 -0.524,-1.99 0,-0.54 0.083,-1.02 0.25,-1.439 0.166,-0.42 0.406,-0.748 0.72,-0.985 0.313,-0.236 0.68,-0.354 1.101,-0.354 0.54,0 1.013,0.217 1.42,0.649 v -2.76 l 0.92,0.11 v 7.388 z m -1.5,-0.805 c 0.2,-0.13 0.393,-0.325 0.58,-0.585 v -2.58 c -0.174,-0.227 -0.358,-0.398 -0.556,-0.516 -0.196,-0.116 -0.418,-0.175 -0.665,-0.175 -0.406,0 -0.722,0.17 -0.944,0.51 -0.224,0.341 -0.335,0.847 -0.335,1.521 0,0.68 0.103,1.187 0.31,1.52 0.207,0.334 0.503,0.5 0.89,0.5 0.28,0 0.52,-0.065 0.72,-0.195 z"
   id="path344" />

		<path
   fill="#0068ff"
   d="m 478.796,327.639 h -3.36 c 0.04,0.58 0.187,1.007 0.44,1.28 0.253,0.273 0.58,0.41 0.979,0.41 0.254,0 0.487,-0.037 0.7,-0.11 0.213,-0.073 0.437,-0.189 0.67,-0.35 l 0.4,0.55 c -0.561,0.44 -1.174,0.66 -1.84,0.66 -0.733,0 -1.306,-0.24 -1.716,-0.72 -0.409,-0.48 -0.614,-1.141 -0.614,-1.98 0,-0.547 0.088,-1.031 0.265,-1.455 0.177,-0.423 0.43,-0.755 0.76,-0.995 0.33,-0.239 0.719,-0.359 1.165,-0.359 0.7,0 1.236,0.229 1.61,0.689 0.373,0.46 0.56,1.097 0.56,1.91 10e-4,0.153 -0.006,0.31 -0.019,0.47 z m -0.891,-0.739 c 0,-0.521 -0.103,-0.917 -0.31,-1.19 -0.207,-0.273 -0.517,-0.41 -0.93,-0.41 -0.754,0 -1.164,0.554 -1.23,1.66 h 2.47 z"
   id="path346" />

	</g>

</g>
    </g>
  </g>
</svg>
