<?xml version="1.0" encoding="utf-8"?>
<!-- Generator: Adobe Illustrator 22.1.0, SVG Export Plug-In . SVG Version: 6.00 Build 0)  -->
<svg version="1.1" id="Layer_1" xmlns="http://www.w3.org/2000/svg" xmlns:xlink="http://www.w3.org/1999/xlink" x="0px" y="0px"
	 width="3456px" height="1728px" viewBox="0 0 3456 1728" enable-background="new 0 0 3456 1728" xml:space="preserve">
<g>
	<path fill="#FFFFFF" stroke="#000000" stroke-width="2" stroke-miterlimit="10" d="M112.566,315.802h-26.9
		c-10.339,0-18.72-8.381-18.72-18.72v-26.9c0-10.339,8.381-18.72,18.72-18.72h26.9c10.339,0,18.72,8.381,18.72,18.72v26.9
		C131.286,307.421,122.905,315.802,112.566,315.802z"/>
	<path d="M204.481,315.802h-26.9c-10.339,0-18.72-8.381-18.72-18.72v-26.9c0-10.339,8.381-18.72,18.72-18.72h26.9
		c10.339,0,18.72,8.381,18.72,18.72v26.9C223.201,307.421,214.819,315.802,204.481,315.802z"/>
	<path fill="none" stroke="#7F7F7F" stroke-width="2" stroke-miterlimit="10" d="M296.396,315.802h-26.9
		c-10.339,0-18.72-8.381-18.72-18.72v-26.9c0-10.339,8.381-18.72,18.72-18.72h26.9c10.339,0,18.72,8.381,18.72,18.72v26.9
		C315.116,307.421,306.734,315.802,296.396,315.802z"/>
	<path fill="#7F7F7F" d="M388.311,315.802h-26.9c-10.339,0-18.72-8.381-18.72-18.72v-26.9c0-10.339,8.381-18.72,18.72-18.72h26.9
		c10.339,0,18.72,8.381,18.72,18.72v26.9C407.031,307.421,398.649,315.802,388.311,315.802z"/>
	<path fill="#0068FF" d="M480.225,315.802h-26.9c-10.339,0-18.72-8.381-18.72-18.72v-26.9c0-10.339,8.381-18.72,18.72-18.72h26.9
		c10.339,0,18.72,8.381,18.72,18.72v26.9C498.945,307.421,490.564,315.802,480.225,315.802z"/>
</g>
<g>
	<g>
		<path fill="#0068FF" d="M83.95,322.339c0.12,0.12,0.18,0.271,0.18,0.45s-0.06,0.328-0.18,0.445
			c-0.12,0.116-0.276,0.175-0.47,0.175c-0.188,0-0.341-0.059-0.46-0.175c-0.12-0.117-0.181-0.266-0.181-0.445s0.061-0.33,0.181-0.45
			c0.119-0.12,0.272-0.18,0.46-0.18C83.674,322.159,83.83,322.219,83.95,322.339z M83.031,329.959v-5.27h0.92v5.27H83.031z"/>
		<path fill="#0068FF" d="M89.455,324.999c0.271,0.287,0.405,0.68,0.405,1.18v3.78h-0.92v-3.65c0-0.373-0.07-0.636-0.21-0.79
			c-0.14-0.153-0.347-0.229-0.62-0.229c-0.28,0-0.526,0.08-0.74,0.24c-0.213,0.16-0.413,0.39-0.6,0.689v3.74h-0.92v-5.27h0.79
			l0.08,0.779c0.187-0.279,0.418-0.5,0.694-0.66c0.277-0.159,0.582-0.239,0.915-0.239C88.811,324.57,89.186,324.713,89.455,324.999z
			"/>
		<path fill="#0068FF" d="M93.19,330.079c-0.446,0-0.795-0.128-1.045-0.385s-0.375-0.629-0.375-1.115v-3.18h-0.92v-0.71h0.92v-1.19
			l0.92-0.11v1.301h1.25l-0.1,0.71h-1.15v3.14c0,0.273,0.049,0.472,0.146,0.595c0.097,0.124,0.258,0.186,0.484,0.186
			c0.221,0,0.454-0.077,0.7-0.23l0.351,0.63C94.024,329.959,93.63,330.079,93.19,330.079z"/>
		<path fill="#0068FF" d="M99.18,327.639h-3.36c0.04,0.58,0.187,1.007,0.44,1.28c0.253,0.273,0.58,0.41,0.979,0.41
			c0.254,0,0.487-0.037,0.7-0.11s0.437-0.189,0.67-0.35l0.4,0.55c-0.561,0.44-1.174,0.66-1.84,0.66c-0.733,0-1.306-0.24-1.716-0.72
			c-0.409-0.48-0.614-1.141-0.614-1.98c0-0.547,0.088-1.031,0.265-1.455c0.177-0.423,0.43-0.755,0.76-0.995
			c0.33-0.239,0.719-0.359,1.165-0.359c0.7,0,1.236,0.229,1.61,0.689c0.373,0.46,0.56,1.097,0.56,1.91
			C99.199,327.322,99.193,327.479,99.18,327.639z M98.289,326.9c0-0.521-0.103-0.917-0.31-1.19s-0.517-0.41-0.93-0.41
			c-0.754,0-1.164,0.554-1.23,1.66h2.47V326.9z"/>
		<path fill="#0068FF" d="M103.53,324.629l-0.17,0.9c-0.16-0.04-0.313-0.061-0.46-0.061c-0.326,0-0.59,0.12-0.79,0.36
			s-0.356,0.613-0.47,1.12v3.01h-0.92v-5.27h0.79l0.09,1.069c0.14-0.394,0.33-0.689,0.57-0.89c0.239-0.2,0.52-0.3,0.84-0.3
			C103.197,324.57,103.369,324.589,103.53,324.629z"/>
		<path fill="#0068FF" d="M105.5,322.339c0.12,0.12,0.18,0.271,0.18,0.45s-0.06,0.328-0.18,0.445
			c-0.12,0.116-0.276,0.175-0.47,0.175c-0.188,0-0.341-0.059-0.46-0.175c-0.12-0.117-0.181-0.266-0.181-0.445s0.061-0.33,0.181-0.45
			c0.119-0.12,0.272-0.18,0.46-0.18C105.224,322.159,105.38,322.219,105.5,322.339z M104.58,329.959v-5.27h0.92v5.27H104.58z"/>
		<path fill="#0068FF" d="M111.106,325.309c0.41,0.494,0.614,1.164,0.614,2.011c0,0.546-0.093,1.028-0.279,1.444
			c-0.187,0.417-0.457,0.74-0.811,0.971c-0.354,0.229-0.773,0.345-1.26,0.345c-0.74,0-1.316-0.247-1.729-0.74
			c-0.414-0.493-0.62-1.163-0.62-2.01c0-0.547,0.093-1.028,0.279-1.445c0.187-0.416,0.457-0.74,0.811-0.97s0.776-0.345,1.27-0.345
			C110.12,324.57,110.696,324.816,111.106,325.309z M108.01,327.329c0,1.34,0.454,2.01,1.36,2.01s1.36-0.673,1.36-2.02
			c0-1.341-0.45-2.011-1.351-2.011C108.467,325.309,108.01,325.983,108.01,327.329z"/>
		<path fill="#0068FF" d="M116.05,324.629l-0.17,0.9c-0.16-0.04-0.313-0.061-0.46-0.061c-0.326,0-0.59,0.12-0.79,0.36
			s-0.356,0.613-0.47,1.12v3.01h-0.92v-5.27h0.79l0.09,1.069c0.14-0.394,0.33-0.689,0.57-0.89c0.239-0.2,0.52-0.3,0.84-0.3
			C115.717,324.57,115.89,324.589,116.05,324.629z"/>
		<path fill="#0068FF" d="M95.741,336.704c0.26,0.09,0.51,0.235,0.75,0.435l-0.45,0.601c-0.181-0.141-0.357-0.243-0.53-0.311
			c-0.174-0.066-0.37-0.1-0.59-0.1c-0.427,0-0.759,0.17-0.995,0.51s-0.355,0.844-0.355,1.51c0,0.667,0.117,1.159,0.351,1.476
			s0.566,0.475,1,0.475c0.213,0,0.405-0.033,0.575-0.1s0.354-0.177,0.555-0.33l0.44,0.63c-0.48,0.387-1.018,0.58-1.61,0.58
			c-0.714,0-1.275-0.24-1.686-0.72c-0.409-0.48-0.614-1.144-0.614-1.99c0-0.561,0.093-1.05,0.279-1.47
			c0.187-0.421,0.452-0.747,0.795-0.98c0.344-0.233,0.752-0.35,1.226-0.35C95.195,336.57,95.481,336.614,95.741,336.704z"/>
		<path fill="#0068FF" d="M100.871,341.959l-0.07-0.82c-0.2,0.327-0.43,0.565-0.689,0.715c-0.261,0.15-0.577,0.226-0.95,0.226
			c-0.46,0-0.82-0.14-1.08-0.42s-0.39-0.677-0.39-1.19v-3.779h0.92v3.68c0,0.359,0.063,0.615,0.189,0.765
			c0.127,0.15,0.334,0.226,0.62,0.226c0.514,0,0.953-0.304,1.32-0.91v-3.76h0.92v5.27h-0.79V341.959z"/>
		<path fill="#0068FF" d="M105.04,342.079c-0.446,0-0.795-0.128-1.045-0.385s-0.375-0.629-0.375-1.115v-3.18h-0.92v-0.71h0.92v-1.19
			l0.92-0.11v1.301h1.25l-0.1,0.71h-1.15v3.14c0,0.273,0.049,0.472,0.146,0.595c0.097,0.124,0.258,0.186,0.484,0.186
			c0.221,0,0.454-0.077,0.7-0.23l0.351,0.63C105.874,341.959,105.481,342.079,105.04,342.079z"/>
	</g>
	<g>
		<path fill="#0068FF" d="M178.121,327.639h-3.36c0.04,0.58,0.187,1.007,0.44,1.28s0.58,0.41,0.979,0.41
			c0.254,0,0.487-0.037,0.7-0.11s0.437-0.189,0.67-0.35l0.4,0.55c-0.561,0.44-1.174,0.66-1.84,0.66c-0.733,0-1.306-0.24-1.716-0.72
			c-0.409-0.48-0.614-1.141-0.614-1.98c0-0.547,0.088-1.031,0.265-1.455c0.177-0.423,0.43-0.755,0.76-0.995
			c0.33-0.239,0.719-0.359,1.165-0.359c0.7,0,1.236,0.229,1.61,0.689c0.373,0.46,0.56,1.097,0.56,1.91
			C178.141,327.322,178.134,327.479,178.121,327.639z M177.231,326.9c0-0.521-0.103-0.917-0.31-1.19s-0.517-0.41-0.93-0.41
			c-0.754,0-1.164,0.554-1.23,1.66h2.47L177.231,326.9L177.231,326.9z"/>
		<path fill="#0068FF" d="M182.302,329.959l-1.29-2.23l-1.311,2.23h-1.04l1.84-2.78l-1.63-2.489h1.08l1.101,1.93l1.109-1.93h1.04
			l-1.62,2.449l1.83,2.82H182.302z"/>
		<path fill="#0068FF" d="M185.891,330.079c-0.446,0-0.795-0.128-1.045-0.385s-0.375-0.629-0.375-1.115v-3.18h-0.92v-0.71h0.92
			v-1.19l0.92-0.11v1.301h1.25l-0.1,0.71h-1.15v3.14c0,0.273,0.049,0.472,0.146,0.595c0.097,0.124,0.258,0.186,0.484,0.186
			c0.221,0,0.454-0.077,0.7-0.23l0.351,0.63C186.725,329.959,186.331,330.079,185.891,330.079z"/>
		<path fill="#0068FF" d="M191.881,327.639h-3.36c0.04,0.58,0.187,1.007,0.44,1.28s0.58,0.41,0.979,0.41
			c0.254,0,0.487-0.037,0.7-0.11s0.437-0.189,0.67-0.35l0.4,0.55c-0.561,0.44-1.174,0.66-1.84,0.66c-0.733,0-1.306-0.24-1.716-0.72
			c-0.409-0.48-0.614-1.141-0.614-1.98c0-0.547,0.088-1.031,0.265-1.455c0.177-0.423,0.43-0.755,0.76-0.995
			c0.33-0.239,0.719-0.359,1.165-0.359c0.7,0,1.236,0.229,1.61,0.689c0.373,0.46,0.56,1.097,0.56,1.91
			C191.901,327.322,191.894,327.479,191.881,327.639z M190.99,326.9c0-0.521-0.103-0.917-0.31-1.19s-0.517-0.41-0.93-0.41
			c-0.754,0-1.164,0.554-1.23,1.66h2.47L190.99,326.9L190.99,326.9z"/>
		<path fill="#0068FF" d="M196.231,324.629l-0.17,0.9c-0.16-0.04-0.313-0.061-0.46-0.061c-0.326,0-0.59,0.12-0.79,0.36
			s-0.356,0.613-0.47,1.12v3.01h-0.92v-5.27h0.79l0.09,1.069c0.14-0.394,0.33-0.689,0.57-0.89c0.239-0.2,0.52-0.3,0.84-0.3
			C195.898,324.57,196.071,324.589,196.231,324.629z"/>
		<path fill="#0068FF" d="M198.2,322.339c0.12,0.12,0.18,0.271,0.18,0.45s-0.06,0.328-0.18,0.445
			c-0.12,0.116-0.276,0.175-0.47,0.175c-0.188,0-0.341-0.059-0.46-0.175c-0.12-0.117-0.181-0.266-0.181-0.445s0.061-0.33,0.181-0.45
			c0.119-0.12,0.272-0.18,0.46-0.18C197.924,322.159,198.08,322.219,198.2,322.339z M197.281,329.959v-5.27h0.92v5.27H197.281z"/>
		<path fill="#0068FF" d="M203.806,325.309c0.41,0.494,0.614,1.164,0.614,2.011c0,0.546-0.093,1.028-0.279,1.444
			c-0.187,0.417-0.457,0.74-0.811,0.971c-0.354,0.229-0.773,0.345-1.26,0.345c-0.74,0-1.316-0.247-1.729-0.74
			c-0.414-0.493-0.62-1.163-0.62-2.01c0-0.547,0.093-1.028,0.279-1.445c0.187-0.416,0.457-0.74,0.811-0.97s0.776-0.345,1.27-0.345
			C202.821,324.57,203.396,324.816,203.806,325.309z M200.71,327.329c0,1.34,0.454,2.01,1.36,2.01s1.36-0.673,1.36-2.02
			c0-1.341-0.45-2.011-1.351-2.011C201.167,325.309,200.71,325.983,200.71,327.329z"/>
		<path fill="#0068FF" d="M208.75,324.629l-0.17,0.9c-0.16-0.04-0.313-0.061-0.46-0.061c-0.326,0-0.59,0.12-0.79,0.36
			s-0.356,0.613-0.47,1.12v3.01h-0.92v-5.27h0.79l0.09,1.069c0.14-0.394,0.33-0.689,0.57-0.89c0.239-0.2,0.52-0.3,0.84-0.3
			C208.417,324.57,208.59,324.589,208.75,324.629z"/>
		<path fill="#0068FF" d="M187.656,336.704c0.26,0.09,0.51,0.235,0.75,0.435l-0.45,0.601c-0.181-0.141-0.357-0.243-0.53-0.311
			c-0.174-0.066-0.37-0.1-0.59-0.1c-0.427,0-0.759,0.17-0.995,0.51s-0.355,0.844-0.355,1.51c0,0.667,0.117,1.159,0.351,1.476
			s0.566,0.475,1,0.475c0.213,0,0.405-0.033,0.575-0.1s0.354-0.177,0.555-0.33l0.44,0.63c-0.48,0.387-1.018,0.58-1.61,0.58
			c-0.714,0-1.275-0.24-1.686-0.72c-0.409-0.48-0.614-1.144-0.614-1.99c0-0.561,0.093-1.05,0.279-1.47
			c0.187-0.421,0.452-0.747,0.795-0.98c0.344-0.233,0.752-0.35,1.226-0.35C187.11,336.57,187.396,336.614,187.656,336.704z"/>
		<path fill="#0068FF" d="M192.786,341.959l-0.07-0.82c-0.2,0.327-0.43,0.565-0.689,0.715c-0.261,0.15-0.577,0.226-0.95,0.226
			c-0.46,0-0.82-0.14-1.08-0.42s-0.39-0.677-0.39-1.19v-3.779h0.92v3.68c0,0.359,0.063,0.615,0.189,0.765
			c0.127,0.15,0.334,0.226,0.62,0.226c0.514,0,0.953-0.304,1.32-0.91v-3.76h0.92v5.27h-0.79V341.959z"/>
		<path fill="#0068FF" d="M196.955,342.079c-0.446,0-0.795-0.128-1.045-0.385s-0.375-0.629-0.375-1.115v-3.18h-0.92v-0.71h0.92
			v-1.19l0.92-0.11v1.301h1.25l-0.1,0.71h-1.15v3.14c0,0.273,0.049,0.472,0.146,0.595c0.097,0.124,0.258,0.186,0.484,0.186
			c0.221,0,0.454-0.077,0.7-0.23l0.351,0.63C197.789,341.959,197.396,342.079,196.955,342.079z"/>
	</g>
	<g>
		<path fill="#0068FF" d="M271.871,325.309c0.41,0.494,0.614,1.164,0.614,2.011c0,0.546-0.093,1.028-0.279,1.444
			c-0.187,0.417-0.457,0.74-0.811,0.971c-0.354,0.229-0.773,0.345-1.26,0.345c-0.74,0-1.316-0.247-1.729-0.74
			c-0.414-0.493-0.62-1.163-0.62-2.01c0-0.547,0.093-1.028,0.279-1.445c0.187-0.416,0.457-0.74,0.811-0.97s0.776-0.345,1.27-0.345
			C270.886,324.57,271.461,324.816,271.871,325.309z M268.776,327.329c0,1.34,0.454,2.01,1.36,2.01s1.36-0.673,1.36-2.02
			c0-1.341-0.45-2.011-1.351-2.011C269.233,325.309,268.776,325.983,268.776,327.329z"/>
		<path fill="#0068FF" d="M277.611,324.999c0.271,0.287,0.405,0.68,0.405,1.18v3.78h-0.92v-3.65c0-0.373-0.07-0.636-0.21-0.79
			c-0.14-0.153-0.347-0.229-0.62-0.229c-0.28,0-0.526,0.08-0.74,0.24c-0.213,0.16-0.413,0.39-0.6,0.689v3.74h-0.92v-5.27h0.79
			l0.08,0.779c0.187-0.279,0.418-0.5,0.694-0.66c0.277-0.159,0.582-0.239,0.915-0.239
			C276.966,324.57,277.341,324.713,277.611,324.999z"/>
		<path fill="#0068FF" d="M283.46,329.219c0.051,0.067,0.136,0.101,0.256,0.101c0.126,0,0.239-0.021,0.34-0.061l0.24,0.641
			c-0.247,0.119-0.507,0.18-0.78,0.18c-0.34,0-0.601-0.099-0.78-0.295s-0.27-0.485-0.27-0.865v-6.35l0.92-0.11v6.44
			C283.386,329.046,283.41,329.153,283.46,329.219z"/>
		<path fill="#0068FF" d="M286.366,322.339c0.12,0.12,0.18,0.271,0.18,0.45s-0.06,0.328-0.18,0.445
			c-0.12,0.116-0.276,0.175-0.47,0.175c-0.188,0-0.341-0.059-0.46-0.175c-0.12-0.117-0.181-0.266-0.181-0.445s0.061-0.33,0.181-0.45
			c0.119-0.12,0.272-0.18,0.46-0.18C286.09,322.159,286.246,322.219,286.366,322.339z M285.447,329.959v-5.27h0.92v5.27H285.447z"/>
		<path fill="#0068FF" d="M291.87,324.999c0.271,0.287,0.405,0.68,0.405,1.18v3.78h-0.92v-3.65c0-0.373-0.07-0.636-0.21-0.79
			c-0.14-0.153-0.347-0.229-0.62-0.229c-0.28,0-0.526,0.08-0.74,0.24c-0.213,0.16-0.413,0.39-0.6,0.689v3.74h-0.92v-5.27h0.79
			l0.08,0.779c0.187-0.279,0.418-0.5,0.694-0.66c0.277-0.159,0.582-0.239,0.915-0.239
			C291.226,324.57,291.601,324.713,291.87,324.999z"/>
		<path fill="#0068FF" d="M298.086,327.639h-3.36c0.04,0.58,0.187,1.007,0.44,1.28s0.58,0.41,0.979,0.41
			c0.254,0,0.487-0.037,0.7-0.11s0.437-0.189,0.67-0.35l0.4,0.55c-0.561,0.44-1.174,0.66-1.84,0.66c-0.733,0-1.306-0.24-1.716-0.72
			c-0.409-0.48-0.614-1.141-0.614-1.98c0-0.547,0.088-1.031,0.265-1.455c0.177-0.423,0.43-0.755,0.76-0.995
			c0.33-0.239,0.719-0.359,1.165-0.359c0.7,0,1.236,0.229,1.61,0.689c0.373,0.46,0.56,1.097,0.56,1.91
			C298.106,327.322,298.099,327.479,298.086,327.639z M297.196,326.9c0-0.521-0.103-0.917-0.31-1.19s-0.517-0.41-0.93-0.41
			c-0.754,0-1.164,0.554-1.23,1.66h2.47V326.9z"/>
		<path fill="#0068FF" d="M279.572,336.704c0.26,0.09,0.51,0.235,0.75,0.435l-0.45,0.601c-0.181-0.141-0.357-0.243-0.53-0.311
			c-0.174-0.066-0.37-0.1-0.59-0.1c-0.427,0-0.759,0.17-0.995,0.51s-0.355,0.844-0.355,1.51c0,0.667,0.117,1.159,0.351,1.476
			s0.566,0.475,1,0.475c0.213,0,0.405-0.033,0.575-0.1s0.354-0.177,0.555-0.33l0.44,0.63c-0.48,0.387-1.018,0.58-1.61,0.58
			c-0.714,0-1.275-0.24-1.686-0.72c-0.409-0.48-0.614-1.144-0.614-1.99c0-0.561,0.093-1.05,0.279-1.47
			c0.187-0.421,0.452-0.747,0.795-0.98c0.344-0.233,0.752-0.35,1.226-0.35C279.025,336.57,279.311,336.614,279.572,336.704z"/>
		<path fill="#0068FF" d="M284.701,341.959l-0.07-0.82c-0.2,0.327-0.43,0.565-0.689,0.715c-0.261,0.15-0.577,0.226-0.95,0.226
			c-0.46,0-0.82-0.14-1.08-0.42s-0.39-0.677-0.39-1.19v-3.779h0.92v3.68c0,0.359,0.063,0.615,0.189,0.765
			c0.127,0.15,0.334,0.226,0.62,0.226c0.514,0,0.953-0.304,1.32-0.91v-3.76h0.92v5.27h-0.79V341.959z"/>
		<path fill="#0068FF" d="M288.87,342.079c-0.446,0-0.795-0.128-1.045-0.385s-0.375-0.629-0.375-1.115v-3.18h-0.92v-0.71h0.92v-1.19
			l0.92-0.11v1.301h1.25l-0.1,0.71h-1.15v3.14c0,0.273,0.049,0.472,0.146,0.595c0.097,0.124,0.258,0.186,0.484,0.186
			c0.221,0,0.454-0.077,0.7-0.23l0.351,0.63C289.704,341.959,289.311,342.079,288.87,342.079z"/>
	</g>
	<g>
		<path fill="#0068FF" d="M357.424,325.289c0.313,0.479,0.471,1.156,0.471,2.03c0,0.826-0.181,1.493-0.54,2
			c-0.36,0.507-0.87,0.76-1.53,0.76c-0.587,0-1.047-0.2-1.38-0.601v2.5l-0.92,0.11v-7.399h0.79l0.069,0.71
			c0.193-0.267,0.427-0.472,0.7-0.615s0.561-0.215,0.86-0.215C356.617,324.57,357.111,324.809,357.424,325.289z M356.905,327.32
			c0-1.347-0.396-2.021-1.19-2.021c-0.26,0-0.496,0.077-0.71,0.23c-0.213,0.153-0.399,0.35-0.56,0.59v2.57
			c0.133,0.206,0.3,0.364,0.5,0.475s0.42,0.165,0.66,0.165C356.471,329.329,356.905,328.659,356.905,327.32z"/>
		<path fill="#0068FF" d="M363.169,325.309c0.41,0.494,0.614,1.164,0.614,2.011c0,0.546-0.093,1.028-0.279,1.444
			c-0.187,0.417-0.457,0.74-0.811,0.971c-0.354,0.229-0.773,0.345-1.26,0.345c-0.74,0-1.316-0.247-1.729-0.74
			c-0.414-0.493-0.62-1.163-0.62-2.01c0-0.547,0.093-1.028,0.279-1.445c0.187-0.416,0.457-0.74,0.811-0.97s0.776-0.345,1.27-0.345
			C362.184,324.57,362.759,324.816,363.169,325.309z M360.073,327.329c0,1.34,0.454,2.01,1.36,2.01s1.36-0.673,1.36-2.02
			c0-1.341-0.45-2.011-1.351-2.011C360.53,325.309,360.073,325.983,360.073,327.329z"/>
		<path fill="#0068FF" d="M368.085,324.704c0.26,0.09,0.51,0.235,0.75,0.435l-0.45,0.601c-0.181-0.141-0.357-0.243-0.53-0.311
			c-0.174-0.066-0.37-0.1-0.59-0.1c-0.427,0-0.759,0.17-0.995,0.51s-0.355,0.844-0.355,1.51c0,0.667,0.117,1.159,0.351,1.476
			s0.566,0.475,1,0.475c0.213,0,0.405-0.033,0.575-0.1s0.354-0.177,0.555-0.33l0.44,0.63c-0.48,0.387-1.018,0.58-1.61,0.58
			c-0.714,0-1.275-0.24-1.686-0.72c-0.409-0.48-0.614-1.144-0.614-1.99c0-0.561,0.093-1.05,0.279-1.47
			c0.187-0.421,0.452-0.747,0.795-0.98c0.344-0.233,0.752-0.35,1.226-0.35C367.538,324.57,367.824,324.614,368.085,324.704z"/>
		<path fill="#0068FF" d="M370.084,329.959v-7.39l0.92-0.11v7.5H370.084z M374.254,329.959h-1.101l-2.09-2.88l1.94-2.39h1.03
			l-1.94,2.329L374.254,329.959z"/>
		<path fill="#0068FF" d="M379.065,327.639h-3.36c0.04,0.58,0.187,1.007,0.44,1.28s0.58,0.41,0.979,0.41
			c0.254,0,0.487-0.037,0.7-0.11s0.437-0.189,0.67-0.35l0.4,0.55c-0.561,0.44-1.174,0.66-1.84,0.66c-0.733,0-1.306-0.24-1.716-0.72
			c-0.409-0.48-0.614-1.141-0.614-1.98c0-0.547,0.088-1.031,0.265-1.455c0.177-0.423,0.43-0.755,0.76-0.995
			c0.33-0.239,0.719-0.359,1.165-0.359c0.7,0,1.236,0.229,1.61,0.689c0.373,0.46,0.56,1.097,0.56,1.91
			C379.084,327.322,379.077,327.479,379.065,327.639z M378.174,326.9c0-0.521-0.103-0.917-0.31-1.19s-0.517-0.41-0.93-0.41
			c-0.754,0-1.164,0.554-1.23,1.66h2.47V326.9z"/>
		<path fill="#0068FF" d="M382.084,330.079c-0.446,0-0.795-0.128-1.045-0.385s-0.375-0.629-0.375-1.115v-3.18h-0.92v-0.71h0.92
			v-1.19l0.92-0.11v1.301h1.25l-0.1,0.71h-1.15v3.14c0,0.273,0.049,0.472,0.146,0.595c0.097,0.124,0.258,0.186,0.484,0.186
			c0.221,0,0.454-0.077,0.7-0.23l0.351,0.63C382.918,329.959,382.525,330.079,382.084,330.079z"/>
		<path fill="#0068FF" d="M385.134,322.339c0.12,0.12,0.18,0.271,0.18,0.45s-0.06,0.328-0.18,0.445
			c-0.12,0.116-0.276,0.175-0.47,0.175c-0.188,0-0.341-0.059-0.46-0.175c-0.12-0.117-0.181-0.266-0.181-0.445s0.061-0.33,0.181-0.45
			c0.119-0.12,0.272-0.18,0.46-0.18C384.858,322.159,385.014,322.219,385.134,322.339z M384.214,329.959v-5.27h0.92v5.27H384.214z"
			/>
		<path fill="#0068FF" d="M390.639,324.999c0.271,0.287,0.405,0.68,0.405,1.18v3.78h-0.92v-3.65c0-0.373-0.07-0.636-0.21-0.79
			c-0.14-0.153-0.347-0.229-0.62-0.229c-0.28,0-0.526,0.08-0.74,0.24c-0.213,0.16-0.413,0.39-0.6,0.689v3.74h-0.92v-5.27h0.79
			l0.08,0.779c0.187-0.279,0.418-0.5,0.694-0.66c0.277-0.159,0.582-0.239,0.915-0.239
			C389.994,324.57,390.369,324.713,390.639,324.999z"/>
		<path fill="#0068FF" d="M396.485,325.059c-0.24,0.021-0.533,0.03-0.88,0.03c0.62,0.28,0.93,0.724,0.93,1.33
			c0,0.526-0.18,0.957-0.54,1.29c-0.359,0.333-0.85,0.5-1.47,0.5c-0.24,0-0.464-0.033-0.67-0.1c-0.08,0.053-0.144,0.125-0.19,0.215
			s-0.069,0.182-0.069,0.274c0,0.287,0.229,0.431,0.689,0.431h0.84c0.354,0,0.667,0.063,0.94,0.189
			c0.273,0.127,0.485,0.3,0.635,0.521c0.15,0.22,0.226,0.47,0.226,0.75c0,0.513-0.211,0.908-0.631,1.185s-1.033,0.415-1.84,0.415
			c-0.566,0-1.015-0.059-1.345-0.175c-0.33-0.117-0.565-0.292-0.705-0.525s-0.21-0.533-0.21-0.899h0.83
			c0,0.213,0.04,0.381,0.12,0.505c0.08,0.123,0.223,0.217,0.43,0.28s0.5,0.095,0.88,0.095c0.554,0,0.948-0.068,1.186-0.205
			c0.236-0.137,0.354-0.342,0.354-0.615c0-0.246-0.093-0.434-0.28-0.56c-0.187-0.127-0.446-0.19-0.779-0.19h-0.83
			c-0.447,0-0.785-0.095-1.016-0.285c-0.229-0.189-0.345-0.428-0.345-0.715c0-0.173,0.05-0.34,0.15-0.5s0.243-0.303,0.43-0.43
			c-0.307-0.16-0.531-0.358-0.675-0.595c-0.144-0.237-0.215-0.525-0.215-0.865c0-0.354,0.088-0.67,0.265-0.95s0.42-0.498,0.73-0.655
			c0.31-0.156,0.654-0.234,1.034-0.234c0.414,0.007,0.761-0.009,1.04-0.045c0.28-0.037,0.512-0.087,0.695-0.15
			s0.408-0.155,0.675-0.275l0.271,0.83C396.945,324.996,396.725,325.039,396.485,325.059z M393.659,325.554
			c-0.189,0.217-0.285,0.502-0.285,0.855c0,0.359,0.097,0.648,0.29,0.865c0.193,0.216,0.467,0.324,0.82,0.324
			c0.36,0,0.635-0.104,0.825-0.314c0.189-0.21,0.285-0.505,0.285-0.885c0-0.78-0.377-1.171-1.131-1.171
			C394.117,325.229,393.85,325.338,393.659,325.554z"/>
		<path fill="#0068FF" d="M371.486,336.704c0.26,0.09,0.51,0.235,0.75,0.435l-0.45,0.601c-0.181-0.141-0.357-0.243-0.53-0.311
			c-0.174-0.066-0.37-0.1-0.59-0.1c-0.427,0-0.759,0.17-0.995,0.51s-0.355,0.844-0.355,1.51c0,0.667,0.117,1.159,0.351,1.476
			s0.566,0.475,1,0.475c0.213,0,0.405-0.033,0.575-0.1s0.354-0.177,0.555-0.33l0.44,0.63c-0.48,0.387-1.018,0.58-1.61,0.58
			c-0.714,0-1.275-0.24-1.686-0.72c-0.409-0.48-0.614-1.144-0.614-1.99c0-0.561,0.093-1.05,0.279-1.47
			c0.187-0.421,0.452-0.747,0.795-0.98c0.344-0.233,0.752-0.35,1.226-0.35C370.939,336.57,371.225,336.614,371.486,336.704z"/>
		<path fill="#0068FF" d="M376.615,341.959l-0.07-0.82c-0.2,0.327-0.43,0.565-0.689,0.715c-0.261,0.15-0.577,0.226-0.95,0.226
			c-0.46,0-0.82-0.14-1.08-0.42s-0.39-0.677-0.39-1.19v-3.779h0.92v3.68c0,0.359,0.063,0.615,0.189,0.765
			c0.127,0.15,0.334,0.226,0.62,0.226c0.514,0,0.953-0.304,1.32-0.91v-3.76h0.92v5.27h-0.79V341.959z"/>
		<path fill="#0068FF" d="M380.784,342.079c-0.446,0-0.795-0.128-1.045-0.385s-0.375-0.629-0.375-1.115v-3.18h-0.92v-0.71h0.92
			v-1.19l0.92-0.11v1.301h1.25l-0.1,0.71h-1.15v3.14c0,0.273,0.049,0.472,0.146,0.595c0.097,0.124,0.258,0.186,0.484,0.186
			c0.221,0,0.454-0.077,0.7-0.23l0.351,0.63C381.618,341.959,381.225,342.079,380.784,342.079z"/>
	</g>
	<g>
		<path fill="#0068FF" d="M458.706,325.059c-0.24,0.021-0.533,0.03-0.88,0.03c0.62,0.28,0.93,0.724,0.93,1.33
			c0,0.526-0.18,0.957-0.54,1.29c-0.359,0.333-0.85,0.5-1.47,0.5c-0.24,0-0.464-0.033-0.67-0.1c-0.08,0.053-0.144,0.125-0.19,0.215
			s-0.069,0.182-0.069,0.274c0,0.287,0.229,0.431,0.689,0.431h0.84c0.354,0,0.667,0.063,0.94,0.189
			c0.273,0.127,0.485,0.3,0.635,0.521c0.15,0.22,0.226,0.47,0.226,0.75c0,0.513-0.211,0.908-0.631,1.185s-1.033,0.415-1.84,0.415
			c-0.566,0-1.015-0.059-1.345-0.175c-0.33-0.117-0.565-0.292-0.705-0.525s-0.21-0.533-0.21-0.899h0.83
			c0,0.213,0.04,0.381,0.12,0.505c0.08,0.123,0.223,0.217,0.43,0.28s0.5,0.095,0.88,0.095c0.554,0,0.948-0.068,1.186-0.205
			c0.236-0.137,0.354-0.342,0.354-0.615c0-0.246-0.093-0.434-0.28-0.56c-0.187-0.127-0.446-0.19-0.779-0.19h-0.83
			c-0.447,0-0.785-0.095-1.016-0.285c-0.229-0.189-0.345-0.428-0.345-0.715c0-0.173,0.05-0.34,0.15-0.5s0.243-0.303,0.43-0.43
			c-0.307-0.16-0.531-0.358-0.675-0.595c-0.144-0.237-0.215-0.525-0.215-0.865c0-0.354,0.088-0.67,0.265-0.95s0.42-0.498,0.73-0.655
			c0.31-0.156,0.654-0.234,1.034-0.234c0.414,0.007,0.761-0.009,1.04-0.045c0.28-0.037,0.512-0.087,0.695-0.15
			s0.408-0.155,0.675-0.275l0.271,0.83C459.166,324.996,458.947,325.039,458.706,325.059z M455.881,325.554
			c-0.189,0.217-0.285,0.502-0.285,0.855c0,0.359,0.097,0.648,0.29,0.865c0.193,0.216,0.467,0.324,0.82,0.324
			c0.36,0,0.635-0.104,0.825-0.314c0.189-0.21,0.285-0.505,0.285-0.885c0-0.78-0.377-1.171-1.131-1.171
			C456.339,325.229,456.072,325.338,455.881,325.554z"/>
		<path fill="#0068FF" d="M463.447,329.959l-0.07-0.82c-0.2,0.327-0.43,0.565-0.689,0.715c-0.261,0.15-0.577,0.226-0.95,0.226
			c-0.46,0-0.82-0.14-1.08-0.42s-0.39-0.677-0.39-1.19v-3.779h0.92v3.68c0,0.359,0.063,0.615,0.189,0.765
			c0.127,0.15,0.334,0.226,0.62,0.226c0.514,0,0.953-0.304,1.32-0.91v-3.76h0.92v5.27h-0.79V329.959z"/>
		<path fill="#0068FF" d="M467.056,322.339c0.12,0.12,0.18,0.271,0.18,0.45s-0.06,0.328-0.18,0.445
			c-0.12,0.116-0.276,0.175-0.47,0.175c-0.188,0-0.341-0.059-0.46-0.175c-0.12-0.117-0.181-0.266-0.181-0.445s0.061-0.33,0.181-0.45
			c0.119-0.12,0.272-0.18,0.46-0.18C466.78,322.159,466.936,322.219,467.056,322.339z M466.136,329.959v-5.27h0.92v5.27H466.136z"/>
		<path fill="#0068FF" d="M473.036,329.959h-0.811l-0.09-0.73c-0.173,0.268-0.39,0.476-0.649,0.625
			c-0.261,0.15-0.551,0.226-0.87,0.226c-0.627,0-1.115-0.247-1.466-0.74c-0.35-0.493-0.524-1.156-0.524-1.99
			c0-0.54,0.083-1.02,0.25-1.439c0.166-0.42,0.406-0.748,0.72-0.985c0.313-0.236,0.68-0.354,1.101-0.354
			c0.54,0,1.013,0.217,1.42,0.649v-2.76l0.92,0.11v7.388H473.036z M471.536,329.154c0.2-0.13,0.393-0.325,0.58-0.585v-2.58
			c-0.174-0.227-0.358-0.398-0.556-0.516c-0.196-0.116-0.418-0.175-0.665-0.175c-0.406,0-0.722,0.17-0.944,0.51
			c-0.224,0.341-0.335,0.847-0.335,1.521c0,0.68,0.103,1.187,0.31,1.52c0.207,0.334,0.503,0.5,0.89,0.5
			C471.096,329.349,471.336,329.284,471.536,329.154z"/>
		<path fill="#0068FF" d="M478.796,327.639h-3.36c0.04,0.58,0.187,1.007,0.44,1.28s0.58,0.41,0.979,0.41
			c0.254,0,0.487-0.037,0.7-0.11s0.437-0.189,0.67-0.35l0.4,0.55c-0.561,0.44-1.174,0.66-1.84,0.66c-0.733,0-1.306-0.24-1.716-0.72
			c-0.409-0.48-0.614-1.141-0.614-1.98c0-0.547,0.088-1.031,0.265-1.455c0.177-0.423,0.43-0.755,0.76-0.995
			c0.33-0.239,0.719-0.359,1.165-0.359c0.7,0,1.236,0.229,1.61,0.689c0.373,0.46,0.56,1.097,0.56,1.91
			C478.816,327.322,478.809,327.479,478.796,327.639z M477.905,326.9c0-0.521-0.103-0.917-0.31-1.19s-0.517-0.41-0.93-0.41
			c-0.754,0-1.164,0.554-1.23,1.66h2.47V326.9z"/>
	</g>
</g>
</svg>
